<svg xmlns="http://www.w3.org/2000/svg" xmlns:xlink="http://www.w3.org/1999/xlink" version="1.1" width="256" height="256" viewBox="0 0 256 256" xml:space="preserve">
<desc>Created with Fabric.js 1.7.22</desc>
<defs>
</defs>
<g transform="translate(128 128) scale(0.72 0.72)" style="">
	<g style="stroke: none; stroke-width: 0; stroke-dasharray: none; stroke-linecap: butt; stroke-linejoin: miter; stroke-miterlimit: 10; fill: none; fill-rule: nonzero; opacity: 1;" transform="translate(-175.05 -175.05000000000004) scale(3.89 3.89)" >
	<path d="M 74.791 90 c -0.214 0 -0.427 -0.068 -0.604 -0.203 L 45 67.701 L 15.813 89.797 c -0.304 0.23 -0.709 0.267 -1.049 0.099 c -0.34 -0.169 -0.555 -0.516 -0.555 -0.896 V 1 c 0 -0.552 0.448 -1 1 -1 h 59.582 c 0.553 0 1 0.448 1 1 v 88 c 0 0.38 -0.215 0.727 -0.555 0.896 C 75.096 89.966 74.942 90 74.791 90 z M 45 65.447 c 0.212 0 0.425 0.067 0.604 0.203 l 28.188 21.338 V 2 H 16.209 v 84.988 L 44.396 65.65 C 44.575 65.515 44.788 65.447 45 65.447 z" style="stroke: none; stroke-width: 1; stroke-dasharray: none; stroke-linecap: butt; stroke-linejoin: miter; stroke-miterlimit: 10; fill: rgb(0,0,0); fill-rule: nonzero; opacity: 1;" transform=" matrix(1 0 0 1 0 0) " stroke-linecap="round" />
</g>
</g>
</svg>